<?xml version="1.0" encoding="UTF-8"?>
<svg version="1.1" xmlns="http://www.w3.org/2000/svg" width="2148" height="732">
<path d="M0,0 L1,0 L1,2 L2,2 L2,4 L3,4 L3,7 L4,7 L4,9 L5,9 L5,12 L6,12 L6,15 L7,15 L7,18 L8,18 L8,21 L9,21 L9,24 L10,24 L10,27 L11,27 L11,31 L12,31 L12,35 L13,35 L13,38 L14,38 L14,43 L15,43 L15,48 L16,48 L16,52 L17,52 L17,57 L18,57 L18,63 L19,63 L19,69 L20,69 L20,78 L21,78 L21,94 L22,94 L22,113 L21,113 L21,127 L20,127 L20,136 L19,136 L19,143 L18,143 L18,149 L17,149 L17,154 L16,154 L16,158 L15,158 L15,162 L14,162 L14,167 L13,167 L13,170 L15,170 L15,169 L17,169 L17,168 L19,168 L19,167 L21,167 L21,166 L23,166 L23,165 L25,165 L25,164 L26,164 L26,163 L28,163 L28,162 L30,162 L30,161 L32,161 L32,160 L34,160 L34,159 L36,159 L36,158 L37,158 L37,157 L39,157 L39,156 L41,156 L41,155 L43,155 L43,154 L45,154 L45,153 L47,153 L47,152 L49,152 L49,151 L51,151 L51,150 L53,150 L53,149 L55,149 L55,148 L57,148 L57,147 L59,147 L59,146 L61,146 L61,145 L62,145 L62,144 L64,144 L64,143 L66,143 L66,142 L68,142 L68,141 L70,141 L70,140 L72,140 L72,139 L74,139 L74,138 L76,138 L76,137 L78,137 L78,136 L80,136 L80,135 L82,135 L82,134 L84,134 L84,133 L85,133 L85,132 L87,132 L87,131 L89,131 L89,130 L92,130 L92,129 L94,129 L94,128 L95,128 L95,127 L97,127 L97,126 L99,126 L99,125 L101,125 L101,124 L103,124 L103,123 L105,123 L105,122 L107,122 L107,121 L109,121 L109,120 L111,120 L111,119 L113,119 L113,118 L114,118 L114,117 L116,117 L116,116 L118,116 L118,115 L120,115 L120,114 L122,114 L122,113 L124,113 L124,112 L126,112 L126,111 L128,111 L128,110 L130,110 L130,109 L132,109 L132,108 L134,108 L134,107 L136,107 L136,106 L138,106 L138,105 L140,105 L140,104 L142,104 L142,103 L144,103 L144,102 L146,102 L146,101 L148,101 L148,100 L150,100 L150,99 L152,99 L152,98 L154,98 L154,97 L156,97 L156,96 L158,96 L158,95 L160,95 L160,94 L162,94 L162,93 L164,93 L164,92 L166,92 L166,91 L168,91 L168,90 L170,90 L170,89 L172,89 L172,88 L174,88 L174,87 L176,87 L176,86 L178,86 L178,85 L180,85 L180,84 L182,84 L182,83 L185,83 L185,82 L187,82 L187,81 L189,81 L189,80 L191,80 L191,79 L193,79 L193,78 L195,78 L195,77 L197,77 L197,76 L199,76 L199,75 L201,75 L201,74 L203,74 L203,73 L205,73 L205,72 L207,72 L207,71 L209,71 L209,70 L211,70 L211,69 L213,69 L213,68 L215,68 L215,67 L217,67 L217,74 L216,74 L216,80 L215,80 L215,86 L214,86 L214,91 L213,91 L213,95 L212,95 L212,100 L211,100 L211,104 L210,104 L210,108 L209,108 L209,112 L208,112 L208,115 L207,115 L207,119 L206,119 L206,123 L205,123 L205,126 L204,126 L204,129 L203,129 L203,132 L202,132 L202,135 L201,135 L201,138 L200,138 L200,141 L199,141 L199,144 L198,144 L198,147 L197,147 L197,150 L196,150 L196,152 L195,152 L195,155 L194,155 L194,158 L193,158 L193,160 L192,160 L192,163 L191,163 L191,165 L190,165 L190,167 L189,167 L189,170 L188,170 L188,172 L187,172 L187,174 L186,174 L186,176 L185,176 L185,179 L184,179 L184,181 L183,181 L183,183 L182,183 L182,186 L181,186 L181,188 L180,188 L180,190 L179,190 L179,192 L178,192 L178,193 L180,193 L180,194 L187,194 L187,195 L193,195 L193,196 L198,196 L198,197 L202,197 L202,198 L206,198 L206,199 L209,199 L209,200 L213,200 L213,201 L216,201 L216,202 L219,202 L219,203 L222,203 L222,204 L225,204 L225,205 L227,205 L227,206 L230,206 L230,207 L233,207 L233,208 L235,208 L235,209 L238,209 L238,210 L240,210 L240,211 L242,211 L242,212 L244,212 L244,213 L247,213 L247,214 L249,214 L249,215 L251,215 L251,216 L253,216 L253,217 L255,217 L255,220 L254,220 L254,222 L253,222 L253,224 L252,224 L252,226 L251,226 L251,228 L250,228 L250,230 L249,230 L249,232 L248,232 L248,234 L247,234 L247,236 L246,236 L246,238 L245,238 L245,240 L244,240 L244,241 L243,241 L243,243 L242,243 L242,245 L241,245 L241,246 L240,246 L240,248 L239,248 L239,250 L238,250 L238,251 L237,251 L237,253 L236,253 L236,254 L235,254 L235,256 L234,256 L234,257 L233,257 L233,259 L232,259 L232,260 L231,260 L231,262 L230,262 L230,263 L229,263 L229,264 L228,264 L228,266 L227,266 L227,267 L226,267 L226,268 L225,268 L225,270 L224,270 L224,271 L223,271 L223,272 L222,272 L222,273 L221,273 L221,274 L220,274 L220,275 L219,275 L219,277 L218,277 L218,278 L217,278 L217,279 L216,279 L216,280 L215,280 L215,281 L214,281 L214,282 L213,282 L213,283 L212,283 L212,284 L211,284 L211,285 L210,285 L210,286 L209,286 L209,287 L208,287 L208,288 L207,288 L207,289 L206,289 L206,290 L205,290 L205,291 L204,291 L204,292 L203,292 L203,293 L202,293 L202,294 L203,294 L203,295 L205,295 L205,296 L207,296 L207,297 L208,297 L208,298 L210,298 L210,299 L211,299 L211,300 L213,300 L213,301 L214,301 L214,302 L216,302 L216,303 L217,303 L217,304 L219,304 L219,305 L220,305 L220,306 L221,306 L221,307 L223,307 L223,308 L224,308 L224,309 L225,309 L225,310 L226,310 L226,311 L227,311 L227,312 L229,312 L229,313 L230,313 L230,314 L231,314 L231,315 L232,315 L232,316 L233,316 L233,317 L234,317 L234,318 L235,318 L235,319 L236,319 L236,320 L237,320 L237,321 L238,321 L238,322 L239,322 L239,323 L240,323 L240,324 L241,324 L241,325 L242,325 L242,326 L243,326 L243,327 L244,327 L244,328 L245,328 L245,329 L246,329 L246,331 L247,331 L247,332 L248,332 L248,333 L249,333 L249,334 L250,334 L250,335 L251,335 L251,336 L252,336 L252,338 L253,338 L253,339 L254,339 L254,341 L255,341 L255,342 L256,342 L256,343 L257,343 L257,345 L258,345 L258,346 L259,346 L259,348 L260,348 L260,349 L261,349 L261,351 L262,351 L262,352 L263,352 L263,354 L262,354 L262,355 L260,355 L260,356 L259,356 L259,357 L258,357 L258,358 L257,358 L257,359 L256,359 L256,360 L255,360 L255,361 L254,361 L254,362 L253,362 L253,363 L251,363 L251,364 L250,364 L250,365 L249,365 L249,366 L248,366 L248,367 L246,367 L246,368 L245,368 L245,369 L244,369 L244,370 L242,370 L242,371 L241,371 L241,372 L239,372 L239,373 L237,373 L237,374 L236,374 L236,375 L234,375 L234,376 L233,376 L233,377 L231,377 L231,378 L229,378 L229,379 L227,379 L227,380 L225,380 L225,381 L223,381 L223,382 L221,382 L221,383 L219,383 L219,384 L217,384 L217,385 L214,385 L214,386 L211,386 L211,387 L209,387 L209,388 L205,388 L205,389 L202,389 L202,390 L198,390 L198,391 L194,391 L194,392 L189,392 L189,393 L183,393 L183,394 L178,394 L178,396 L179,396 L179,397 L180,397 L180,399 L181,399 L181,400 L182,400 L182,402 L183,402 L183,404 L184,404 L184,405 L185,405 L185,407 L186,407 L186,409 L187,409 L187,410 L188,410 L188,412 L189,412 L189,414 L190,414 L190,416 L191,416 L191,418 L192,418 L192,420 L193,420 L193,422 L194,422 L194,424 L195,424 L195,427 L196,427 L196,429 L197,429 L197,431 L198,431 L198,434 L199,434 L199,436 L200,436 L200,439 L201,439 L201,442 L202,442 L202,444 L203,444 L203,447 L204,447 L204,450 L205,450 L205,453 L206,453 L206,457 L207,457 L207,461 L208,461 L208,465 L209,465 L209,470 L210,470 L210,475 L211,475 L211,481 L212,481 L212,486 L211,486 L211,487 L209,487 L209,488 L206,488 L206,489 L203,489 L203,490 L199,490 L199,491 L195,491 L195,492 L190,492 L190,493 L183,493 L183,494 L171,494 L171,495 L157,495 L157,494 L146,494 L146,493 L141,493 L141,492 L136,492 L136,491 L132,491 L132,490 L128,490 L128,489 L126,489 L126,495 L127,495 L127,504 L128,504 L128,542 L127,542 L127,552 L126,552 L126,559 L125,559 L125,566 L124,566 L124,570 L123,570 L123,575 L122,575 L122,579 L121,579 L121,582 L115,582 L115,581 L110,581 L110,580 L106,580 L106,579 L102,579 L102,578 L98,578 L98,577 L95,577 L95,576 L92,576 L92,575 L90,575 L90,574 L87,574 L87,573 L85,573 L85,572 L82,572 L82,571 L80,571 L80,570 L78,570 L78,569 L76,569 L76,568 L74,568 L74,567 L72,567 L72,566 L71,566 L71,565 L69,565 L69,564 L67,564 L67,563 L65,563 L65,562 L64,562 L64,561 L62,561 L62,560 L61,560 L61,559 L59,559 L59,558 L58,558 L58,557 L56,557 L56,556 L55,556 L55,555 L54,555 L54,554 L52,554 L52,553 L51,553 L51,552 L50,552 L50,551 L49,551 L49,550 L47,550 L47,549 L46,549 L46,548 L45,548 L45,547 L44,547 L44,546 L43,546 L43,545 L42,545 L42,544 L41,544 L41,543 L40,543 L40,542 L37,542 L37,547 L36,547 L36,550 L35,550 L35,554 L34,554 L34,557 L33,557 L33,560 L32,560 L32,563 L31,563 L31,565 L30,565 L30,567 L29,567 L29,569 L28,569 L28,570 L27,570 L27,572 L26,572 L26,574 L25,574 L25,575 L24,575 L24,577 L23,577 L23,578 L22,578 L22,579 L21,579 L21,581 L20,581 L20,582 L19,582 L19,583 L18,583 L18,584 L17,584 L17,585 L16,585 L16,587 L14,587 L14,588 L13,588 L13,589 L12,589 L12,590 L11,590 L11,591 L10,591 L10,592 L9,592 L9,593 L7,593 L7,594 L6,594 L6,595 L4,595 L4,596 L3,596 L3,597 L1,597 L1,598 L-1,598 L-1,599 L-2,599 L-2,600 L-5,600 L-5,601 L-7,601 L-7,602 L-9,602 L-9,603 L-11,603 L-11,604 L-14,604 L-14,605 L-16,605 L-16,606 L-20,606 L-20,607 L-23,607 L-23,608 L-27,608 L-27,609 L-32,609 L-32,610 L-38,610 L-38,611 L-43,611 L-43,612 L-53,612 L-53,613 L-80,613 L-80,614 L-82,614 L-82,613 L-87,613 L-87,610 L-86,610 L-86,607 L-85,607 L-85,604 L-84,604 L-84,601 L-83,601 L-83,598 L-82,598 L-82,595 L-81,595 L-81,592 L-80,592 L-80,589 L-79,589 L-79,586 L-78,586 L-78,583 L-77,583 L-77,580 L-76,580 L-76,577 L-75,577 L-75,573 L-74,573 L-74,571 L-73,571 L-73,567 L-72,567 L-72,564 L-71,564 L-71,561 L-70,561 L-70,558 L-69,558 L-69,555 L-68,555 L-68,552 L-67,552 L-67,548 L-66,548 L-66,545 L-65,545 L-65,542 L-64,542 L-64,539 L-63,539 L-63,536 L-62,536 L-62,532 L-61,532 L-61,528 L-60,528 L-60,525 L-59,525 L-59,522 L-58,522 L-58,519 L-57,519 L-57,516 L-56,516 L-56,513 L-55,513 L-55,509 L-54,509 L-54,506 L-53,506 L-53,502 L-52,502 L-52,499 L-51,499 L-51,497 L-58,497 L-58,496 L-64,496 L-64,495 L-69,495 L-69,494 L-73,494 L-73,493 L-77,493 L-77,492 L-80,492 L-80,491 L-83,491 L-83,490 L-87,490 L-87,489 L-89,489 L-89,488 L-92,488 L-92,487 L-94,487 L-94,486 L-97,486 L-97,485 L-99,485 L-99,484 L-101,484 L-101,483 L-104,483 L-104,482 L-105,482 L-105,481 L-107,481 L-107,480 L-109,480 L-109,479 L-111,479 L-111,478 L-113,478 L-113,477 L-115,477 L-115,476 L-117,476 L-117,475 L-118,475 L-118,474 L-120,474 L-120,473 L-121,473 L-121,472 L-123,472 L-123,471 L-124,471 L-124,470 L-126,470 L-126,469 L-127,469 L-127,468 L-129,468 L-129,467 L-130,467 L-130,466 L-132,466 L-132,465 L-133,465 L-133,464 L-134,464 L-134,463 L-136,463 L-136,462 L-137,462 L-137,461 L-138,461 L-138,460 L-139,460 L-139,459 L-141,459 L-141,458 L-142,458 L-142,457 L-143,457 L-143,456 L-144,456 L-144,455 L-145,455 L-145,454 L-146,454 L-146,453 L-148,453 L-148,452 L-149,452 L-149,451 L-150,451 L-150,450 L-151,450 L-151,449 L-152,449 L-152,448 L-153,448 L-153,447 L-154,447 L-154,446 L-155,446 L-155,445 L-156,445 L-156,444 L-157,444 L-157,443 L-158,443 L-158,442 L-159,442 L-159,441 L-160,441 L-160,439 L-161,439 L-161,438 L-162,438 L-162,437 L-163,437 L-163,436 L-164,436 L-164,435 L-165,435 L-165,434 L-166,434 L-166,433 L-167,433 L-167,431 L-168,431 L-168,430 L-169,430 L-169,429 L-170,429 L-170,428 L-171,428 L-171,426 L-172,426 L-172,425 L-173,425 L-173,424 L-174,424 L-174,422 L-175,422 L-175,421 L-176,421 L-176,420 L-177,420 L-177,418 L-178,418 L-178,417 L-179,417 L-179,415 L-180,415 L-180,414 L-181,414 L-181,413 L-182,413 L-182,411 L-183,411 L-183,410 L-184,410 L-184,408 L-185,408 L-185,407 L-186,407 L-186,405 L-187,405 L-187,404 L-188,404 L-188,402 L-189,402 L-189,400 L-190,400 L-190,399 L-191,399 L-191,397 L-192,397 L-192,395 L-193,395 L-193,394 L-194,394 L-194,392 L-195,392 L-195,390 L-196,390 L-196,389 L-197,389 L-197,387 L-198,387 L-198,385 L-199,385 L-199,383 L-200,383 L-200,382 L-201,382 L-201,380 L-202,380 L-202,378 L-203,378 L-203,376 L-204,376 L-204,375 L-205,375 L-205,373 L-206,373 L-206,371 L-207,371 L-207,369 L-208,369 L-208,368 L-209,368 L-209,366 L-210,366 L-210,364 L-211,364 L-211,363 L-212,363 L-212,361 L-213,361 L-213,359 L-214,359 L-214,358 L-215,358 L-215,356 L-216,356 L-216,355 L-217,355 L-217,353 L-218,353 L-218,352 L-219,352 L-219,350 L-220,350 L-220,349 L-221,349 L-221,347 L-222,347 L-222,346 L-223,346 L-223,344 L-224,344 L-224,343 L-225,343 L-225,342 L-226,342 L-226,340 L-227,340 L-227,339 L-228,339 L-228,338 L-229,338 L-229,337 L-230,337 L-230,335 L-231,335 L-231,334 L-232,334 L-232,333 L-233,333 L-233,332 L-234,332 L-234,331 L-235,331 L-235,329 L-236,329 L-236,328 L-237,328 L-237,327 L-238,327 L-238,326 L-239,326 L-239,325 L-240,325 L-240,324 L-241,324 L-241,323 L-242,323 L-242,321 L-243,321 L-243,320 L-244,320 L-244,319 L-245,319 L-245,318 L-246,318 L-246,317 L-247,317 L-247,316 L-248,316 L-248,315 L-250,315 L-250,314 L-251,314 L-251,313 L-252,313 L-252,312 L-253,312 L-253,311 L-254,311 L-254,310 L-255,310 L-255,309 L-256,309 L-256,308 L-258,308 L-258,307 L-259,307 L-259,306 L-260,306 L-260,305 L-262,305 L-262,304 L-263,304 L-263,303 L-265,303 L-265,302 L-266,302 L-266,301 L-267,301 L-267,300 L-269,300 L-269,299 L-270,299 L-270,298 L-272,298 L-272,297 L-273,297 L-273,296 L-274,296 L-274,295 L-276,295 L-276,294 L-278,294 L-278,293 L-280,293 L-280,292 L-281,292 L-281,291 L-284,291 L-284,290 L-286,290 L-286,289 L-288,289 L-288,288 L-290,288 L-290,287 L-292,287 L-292,286 L-295,286 L-295,285 L-298,285 L-298,284 L-302,284 L-302,283 L-306,283 L-306,282 L-311,282 L-311,281 L-316,281 L-316,280 L-343,280 L-343,281 L-350,281 L-350,282 L-356,282 L-356,283 L-360,283 L-360,284 L-364,284 L-364,285 L-368,285 L-368,286 L-371,286 L-371,287 L-375,287 L-375,288 L-378,288 L-378,289 L-381,289 L-381,290 L-384,290 L-384,291 L-387,291 L-387,292 L-390,292 L-390,293 L-393,293 L-393,294 L-396,294 L-396,295 L-399,295 L-399,296 L-402,296 L-402,297 L-404,297 L-404,298 L-408,298 L-408,299 L-410,299 L-410,300 L-413,300 L-413,301 L-415,301 L-415,302 L-418,302 L-418,303 L-420,303 L-420,304 L-423,304 L-423,305 L-426,305 L-426,306 L-430,306 L-430,307 L-433,307 L-433,308 L-436,308 L-436,309 L-438,309 L-438,310 L-441,310 L-441,311 L-444,311 L-444,312 L-446,312 L-446,313 L-449,313 L-449,314 L-452,314 L-452,315 L-455,315 L-455,316 L-457,316 L-457,317 L-460,317 L-460,318 L-462,318 L-462,319 L-465,319 L-465,320 L-467,320 L-467,321 L-471,321 L-471,322 L-474,322 L-474,323 L-476,323 L-476,324 L-478,324 L-478,325 L-481,325 L-481,326 L-483,326 L-483,327 L-485,327 L-485,328 L-488,328 L-488,329 L-490,329 L-490,330 L-493,330 L-493,331 L-495,331 L-495,332 L-497,332 L-497,333 L-500,333 L-500,334 L-503,334 L-503,335 L-505,335 L-505,336 L-508,336 L-508,337 L-510,337 L-510,338 L-513,338 L-513,337 L-511,337 L-511,336 L-510,336 L-510,335 L-508,335 L-508,334 L-505,334 L-505,333 L-503,333 L-503,332 L-501,332 L-501,331 L-499,331 L-499,330 L-497,330 L-497,329 L-495,329 L-495,328 L-493,328 L-493,327 L-490,327 L-490,326 L-488,326 L-488,325 L-486,325 L-486,324 L-484,324 L-484,323 L-482,323 L-482,322 L-479,322 L-479,321 L-477,321 L-477,320 L-475,320 L-475,319 L-473,319 L-473,318 L-471,318 L-471,317 L-469,317 L-469,316 L-467,316 L-467,315 L-465,315 L-465,314 L-462,314 L-462,313 L-460,313 L-460,312 L-458,312 L-458,311 L-456,311 L-456,310 L-455,310 L-455,309 L-452,309 L-452,308 L-450,308 L-450,307 L-448,307 L-448,306 L-445,306 L-445,305 L-443,305 L-443,304 L-441,304 L-441,303 L-439,303 L-439,302 L-437,302 L-437,301 L-435,301 L-435,300 L-433,300 L-433,299 L-430,299 L-430,298 L-428,298 L-428,297 L-426,297 L-426,296 L-424,296 L-424,295 L-421,295 L-421,294 L-419,294 L-419,293 L-417,293 L-417,292 L-415,292 L-415,291 L-413,291 L-413,290 L-411,290 L-411,289 L-408,289 L-408,288 L-406,288 L-406,287 L-404,287 L-404,286 L-402,286 L-402,285 L-400,285 L-400,284 L-398,284 L-398,283 L-396,283 L-396,282 L-394,282 L-394,281 L-391,281 L-391,280 L-389,280 L-389,279 L-387,279 L-387,278 L-385,278 L-385,277 L-383,277 L-383,276 L-380,276 L-380,275 L-378,275 L-378,274 L-376,274 L-376,273 L-374,273 L-374,272 L-372,272 L-372,271 L-370,271 L-370,270 L-368,270 L-368,269 L-365,269 L-365,268 L-363,268 L-363,267 L-361,267 L-361,266 L-359,266 L-359,265 L-357,265 L-357,264 L-355,264 L-355,263 L-353,263 L-353,262 L-351,262 L-351,261 L-349,261 L-349,260 L-347,260 L-347,259 L-345,259 L-345,258 L-344,258 L-344,257 L-343,257 L-343,256 L-341,256 L-341,255 L-340,255 L-340,254 L-339,254 L-339,253 L-338,253 L-338,252 L-337,252 L-337,251 L-336,251 L-336,249 L-335,249 L-335,248 L-334,248 L-334,247 L-333,247 L-333,245 L-332,245 L-332,243 L-331,243 L-331,241 L-330,241 L-330,239 L-329,239 L-329,237 L-328,237 L-328,235 L-327,235 L-327,233 L-326,233 L-326,231 L-325,231 L-325,230 L-324,230 L-324,228 L-323,228 L-323,227 L-322,227 L-322,225 L-321,225 L-321,224 L-320,224 L-320,222 L-319,222 L-319,221 L-318,221 L-318,220 L-317,220 L-317,219 L-316,219 L-316,217 L-315,217 L-315,216 L-314,216 L-314,215 L-313,215 L-313,214 L-312,214 L-312,213 L-311,213 L-311,212 L-310,212 L-310,211 L-309,211 L-309,210 L-308,210 L-308,209 L-306,209 L-306,208 L-305,208 L-305,207 L-304,207 L-304,206 L-302,206 L-302,205 L-301,205 L-301,204 L-299,204 L-299,203 L-297,203 L-297,202 L-296,202 L-296,201 L-294,201 L-294,200 L-291,200 L-291,199 L-289,199 L-289,198 L-286,198 L-286,197 L-283,197 L-283,196 L-280,196 L-280,195 L-275,195 L-275,194 L-246,194 L-246,195 L-240,195 L-240,196 L-236,196 L-236,197 L-233,197 L-233,198 L-229,198 L-229,199 L-226,199 L-226,200 L-224,200 L-224,201 L-221,201 L-221,202 L-218,202 L-218,203 L-216,203 L-216,204 L-213,204 L-213,205 L-211,205 L-211,206 L-208,206 L-208,207 L-207,207 L-207,208 L-205,208 L-205,209 L-203,209 L-203,210 L-201,210 L-201,211 L-199,211 L-199,212 L-197,212 L-197,213 L-195,213 L-195,214 L-193,214 L-193,215 L-191,215 L-191,216 L-190,216 L-190,217 L-188,217 L-188,218 L-187,218 L-187,219 L-185,219 L-185,220 L-183,220 L-183,221 L-182,221 L-182,222 L-181,222 L-181,223 L-178,223 L-178,224 L-177,224 L-177,225 L-175,225 L-175,226 L-173,226 L-173,224 L-172,224 L-172,223 L-171,223 L-171,222 L-170,222 L-170,220 L-169,220 L-169,219 L-168,219 L-168,217 L-167,217 L-167,216 L-166,216 L-166,215 L-165,215 L-165,213 L-164,213 L-164,212 L-163,212 L-163,211 L-162,211 L-162,209 L-161,209 L-161,208 L-160,208 L-160,207 L-159,207 L-159,205 L-158,205 L-158,204 L-157,204 L-157,203 L-156,203 L-156,202 L-155,202 L-155,200 L-154,200 L-154,199 L-153,199 L-153,197 L-152,197 L-152,196 L-151,196 L-151,195 L-150,195 L-150,193 L-149,193 L-149,192 L-148,192 L-148,191 L-147,191 L-147,189 L-146,189 L-146,188 L-145,188 L-145,187 L-144,187 L-144,185 L-143,185 L-143,184 L-142,184 L-142,182 L-141,182 L-141,181 L-140,181 L-140,180 L-139,180 L-139,178 L-138,178 L-138,177 L-137,177 L-137,176 L-136,176 L-136,174 L-135,174 L-135,173 L-134,173 L-134,172 L-133,172 L-133,170 L-132,170 L-132,169 L-131,169 L-131,168 L-130,168 L-130,166 L-129,166 L-129,165 L-128,165 L-128,164 L-127,164 L-127,162 L-126,162 L-126,161 L-125,161 L-125,159 L-124,159 L-124,158 L-123,158 L-123,157 L-122,157 L-122,155 L-121,155 L-121,154 L-120,154 L-120,153 L-119,153 L-119,151 L-118,151 L-118,150 L-117,150 L-117,149 L-116,149 L-116,147 L-115,147 L-115,146 L-114,146 L-114,145 L-113,145 L-113,143 L-112,143 L-112,142 L-111,142 L-111,141 L-110,141 L-110,140 L-109,140 L-109,138 L-108,138 L-108,137 L-107,137 L-107,135 L-106,135 L-106,134 L-105,134 L-105,133 L-104,133 L-104,131 L-103,131 L-103,130 L-102,130 L-102,129 L-101,129 L-101,127 L-100,127 L-100,126 L-99,126 L-99,125 L-98,125 L-98,124 L-97,124 L-97,122 L-96,122 L-96,121 L-95,121 L-95,119 L-94,119 L-94,118 L-93,118 L-93,117 L-92,117 L-92,115 L-91,115 L-91,114 L-90,114 L-90,113 L-89,113 L-89,111 L-88,111 L-88,110 L-87,110 L-87,109 L-86,109 L-86,108 L-85,108 L-85,106 L-84,106 L-84,105 L-83,105 L-83,104 L-82,104 L-82,102 L-81,102 L-81,101 L-80,101 L-80,100 L-79,100 L-79,98 L-78,98 L-78,97 L-77,97 L-77,96 L-76,96 L-76,94 L-75,94 L-75,93 L-74,93 L-74,92 L-73,92 L-73,91 L-72,91 L-72,89 L-71,89 L-71,88 L-70,88 L-70,87 L-69,87 L-69,86 L-68,86 L-68,84 L-67,84 L-67,83 L-66,83 L-66,82 L-65,82 L-65,80 L-64,80 L-64,79 L-63,79 L-63,78 L-62,78 L-62,77 L-61,77 L-61,76 L-60,76 L-60,74 L-59,74 L-59,73 L-58,73 L-58,72 L-57,72 L-57,70 L-56,70 L-56,69 L-55,69 L-55,68 L-54,68 L-54,67 L-53,67 L-53,65 L-52,65 L-52,64 L-51,64 L-51,63 L-50,63 L-50,62 L-49,62 L-49,60 L-48,60 L-48,59 L-47,59 L-47,57 L-46,57 L-46,56 L-45,56 L-45,55 L-44,55 L-44,54 L-43,54 L-43,53 L-42,53 L-42,51 L-41,51 L-41,50 L-40,50 L-40,49 L-39,49 L-39,48 L-38,48 L-38,47 L-37,47 L-37,45 L-36,45 L-36,44 L-35,44 L-35,43 L-34,43 L-34,42 L-33,42 L-33,40 L-32,40 L-32,39 L-31,39 L-31,38 L-30,38 L-30,37 L-29,37 L-29,35 L-28,35 L-28,34 L-27,34 L-27,33 L-26,33 L-26,32 L-25,32 L-25,31 L-24,31 L-24,29 L-23,29 L-23,28 L-22,28 L-22,27 L-21,27 L-21,26 L-20,26 L-20,24 L-19,24 L-19,23 L-18,23 L-18,22 L-17,22 L-17,21 L-16,21 L-16,19 L-15,19 L-15,18 L-14,18 L-14,17 L-13,17 L-13,16 L-12,16 L-12,14 L-11,14 L-11,13 L-10,13 L-10,12 L-9,12 L-9,11 L-8,11 L-8,9 L-7,9 L-7,8 L-6,8 L-6,7 L-5,7 L-5,5 L-4,5 L-4,4 L-3,4 L-3,3 L-2,3 L-2,2 L-1,2 L-1,1 L0,1 Z " fill="#000000" transform="translate(1153,20)"/>
</svg>
